nColumns=19
nRows=62
DataType=double
version=3
OpenSimVersion=4.1
endheader
time	ground_force_calcn_r_vx	ground_force_calcn_r_vy	ground_force_calcn_r_vz	ground_force_calcn_r_px	ground_force_calcn_r_py	ground_force_calcn_r_pz	ground_force_calcn_r_mx	ground_force_calcn_r_my	ground_force_calcn_r_mz	ground_force_calcn_l_vx	ground_force_calcn_l_vy	ground_force_calcn_l_vz	ground_force_calcn_l_px	ground_force_calcn_l_py	ground_force_calcn_l_pz	ground_force_calcn_l_mx	ground_force_calcn_l_my	ground_force_calcn_l_mz
0.11	0	0	0	0	0	0	0	0	0	-32.4269	137.996	20.554	0.919089	0	-0.381828	-1.3521	5.754	0.857039
0.12	0	0	0	0	0	0	0	0	0	-147.833	535.741	50.8959	0.928299	0	-0.380441	0.611401	-2.21569	-0.210493
0.13	0	0	0	0	0	0	0	0	0	-207.925	998.389	78.1028	0.911497	0	-0.369782	1.639	-7.86993	-0.615656
0.14	0	0	0	0	0	0	0	0	0	-214.273	1417.49	73.2555	0.878627	0	-0.36212	1.53967	-10.1854	-0.526381
0.15	0	0	0	0	0	0	0	0	0	-221.955	1709.71	30.5665	0.840972	0	-0.360895	1.21918	-9.39134	-0.1679
0.16	0	0	0	0	0	0	0	0	0	-237.259	1898.48	-11.14	0.805095	0	-0.362003	0.907625	-7.26257	0.0426156
0.17	0	0	0	0	0	0	0	0	0	-224.467	2067.15	-16.011	0.770061	0	-0.360832	0.619927	-5.709	0.0442187
0.18	0	0	0	0	0	0	0	0	0	-157.882	2213.4	3.89809	0.733374	0	-0.359578	0.397159	-5.5679	-0.00980579
0.19	0	0	0	0	0	0	0	0	0	-63.5052	2274.52	17.2839	0.695448	0	-0.361232	0.179898	-6.4433	-0.0489621
0.2	0	0	0	0	0	0	0	0	0	24.4177	2228.74	18.4112	0.657567	0	-0.363703	-0.0796958	-7.27427	-0.0600913
0.21	0	0	0	0	0	0	0	0	0	105.073	2087.16	16.8747	0.619363	0	-0.363874	-0.353776	-7.02735	-0.0568161
0.22	0	0	0	0	0	0	0	0	0	188.796	1847.29	9.48235	0.577817	0	-0.362462	-0.531485	-5.20037	-0.026694
0.23	0	0	0	0	0	0	0	0	0	267.453	1515.39	-9.84936	0.530883	0	-0.362075	-0.37329	-2.11507	0.013747
0.24	0	0	0	0	0	0	0	0	0	301.941	1133.94	-30.0069	0.482682	0	-0.36321	0.305051	1.14561	-0.0303159
0.25	0	0	0	0	0	0	0	0	0	272.792	762.563	-35.0391	0.44031	0	-0.363194	1.22552	3.42583	-0.157414
0.26	0	0	0	0	0	0	0	0	0	200.593	454.766	-26.0603	0.415984	0	-0.358295	1.87563	4.25226	-0.243676
0.27	0	0	0	0	0	0	0	0	0	116.27	229.764	-15.9038	0.406575	0	-0.352086	1.96948	3.89193	-0.269391
0.28	0	0	0	0	0	0	0	0	0	51.3705	88.5203	-10.5846	0.362887	0	-0.353579	1.6284	2.80602	-0.335522
0.29	0	0	0	0	0	0	0	0	0	15.7091	26.8767	-6.73692	0.345607	0	-0.346111	0.976676	1.67099	-0.418852
0.3	0	0	0	0	0	0	0	0	0	1.69811	12.1859	-1.83376	0.788004	0	-0.242128	0.141982	1.01889	-0.153325
0.31	0	0	0	0	0	0	0	0	0	0	0	0	0	0	0	0	0	0
0.32	0	0	0	0	0	0	0	0	0	0	0	0	0	0	0	0	0	0
0.33	0	0	0	0	0	0	0	0	0	0	0	0	0	0	0	0	0	0
0.34	0	0	0	0	0	0	0	0	0	0	0	0	0	0	0	0	0	0
0.35	0	0	0	0	0	0	0	0	0	0	0	0	0	0	0	0	0	0
0.36	0	0	0	0	0	0	0	0	0	0	0	0	0	0	0	0	0	0
0.37	0	0	0	0	0	0	0	0	0	0	0	0	0	0	0	0	0	0
0.38	0	0	0	0	0	0	0	0	0	0	0	0	0	0	0	0	0	0
0.39	-13.6966	27.356	-8.27218	0.959405	0	-0.229074	-0.120466	0.240605	-0.0727565	0	0	0	0	0	0	0	0	0
0.4	-51.4105	110.739	-18.8659	0.972538	0	-0.253594	-0.678249	1.46095	-0.248894	0	0	0	0	0	0	0	0	0
0.41	-133.617	334.131	-33.8197	0.981198	0	-0.25661	-1.10872	2.77254	-0.280628	0	0	0	0	0	0	0	0	0
0.42	-229.324	716.544	-46.847	0.973116	0	-0.260391	-1.15153	3.59807	-0.235239	0	0	0	0	0	0	0	0	0
0.43	-273.731	1160.2	-47.3279	0.942908	0	-0.26663	-0.811151	3.43804	-0.140247	0	0	0	0	0	0	0	0	0
0.44	-286.068	1552.66	-29.0458	0.903672	0	-0.272775	-0.42013	2.28029	-0.0426577	0	0	0	0	0	0	0	0	0
0.45	-309.072	1830.26	-1.46403	0.867778	0	-0.276869	-0.147487	0.873387	-0.000698623	0	0	0	0	0	0	0	0	0
0.46	-307.942	2014.45	14.5893	0.832341	0	-0.279629	-0.0333414	0.218108	0.0015796	0	0	0	0	0	0	0	0	0
0.47	-251.09	2156.75	9.78173	0.793709	0	-0.281262	-0.109812	0.943232	0.00427795	0	0	0	0	0	0	0	0	0
0.48	-164.118	2257.88	-5.23377	0.755099	0	-0.280827	-0.218899	3.01155	-0.00698077	0	0	0	0	0	0	0	0	0
0.49	-81.0773	2284.77	-18.723	0.71826	0	-0.279024	-0.204424	5.76069	-0.0472072	0	0	0	0	0	0	0	0	0
0.5	-0.601363	2219.4	-28.7319	0.680652	0	-0.277446	-0.00224235	8.27567	-0.107135	0	0	0	0	0	0	0	0	0
0.51	86.3011	2064.05	-33.12	0.640124	0	-0.276479	0.409	9.78201	-0.156963	0	0	0	0	0	0	0	0	0
0.52	179.745	1827.7	-27.692	0.596091	0	-0.275386	0.974031	9.90422	-0.150062	0	0	0	0	0	0	0	0	0
0.53	262.328	1526.06	-16.2799	0.551046	0	-0.273826	1.50552	8.75818	-0.093432	0	0	0	0	0	0	0	0	0
0.54	296.49	1182.08	-8.01958	0.508449	0	-0.272344	1.72266	6.86809	-0.0465952	0	0	0	0	0	0	0	0	0
0.55	273.325	824.37	-5.4392	0.465465	0	-0.271111	1.59457	4.80936	-0.0317322	0	0	0	0	0	0	0	0	0
0.56	210.936	501.352	-4.3712	0.419734	0	-0.26887	1.2429	2.95411	-0.0257564	0	0	0	0	0	0	0	0	0
0.57	129.035	261.387	-1.87894	0.391589	0	-0.263673	0.758308	1.53612	-0.0110421	0	0	0	0	0	0	0	0	0
0.58	55.6532	113.965	1.19816	0.422036	0	-0.253049	0.290855	0.595607	0.00626182	0	0	0	0	0	0	0	0	0
0.59	14.2897	39.3593	2.78949	0.546849	0	-0.229548	-0.0032811	-0.00903738	-0.000640501	0	0	0	0	0	0	0	0	0
0.6	1.17922	12.1265	2.4044	0.874006	0	-0.180638	-0.0357257	-0.367384	-0.0728436	0	0	0	0	0	0	0	0	0
0.61	0	0	0	0	0	0	0	0	0	0	0	0	0	0	0	0	0	0
0.62	0	0	0	0	0	0	0	0	0	0	0	0	0	0	0	0	0	0
0.63	0	0	0	0	0	0	0	0	0	0	0	0	0	0	0	0	0	0
0.64	0	0	0	0	0	0	0	0	0	0	0	0	0	0	0	0	0	0
0.65	0	0	0	0	0	0	0	0	0	0	0	0	0	0	0	0	0	0
0.66	0	0	0	0	0	0	0	0	0	0	0	0	0	0	0	0	0	0
0.67	0	0	0	0	0	0	0	0	0	0	0	0	0	0	0	0	0	0
0.68	0	0	0	0	0	0	0	0	0	0	0	0	0	0	0	0	0	0
0.69	0	0	0	0	0	0	0	0	0	0	0	0	0	0	0	0	0	0
0.7	0	0	0	0	0	0	0	0	0	0	0	0	0	0	0	0	0	0
0.71	0	0	0	0	0	0	0	0	0	-13.4771	25.5608	-3.19935	1.04378	0	-0.522636	-2.52149	4.78229	-0.59858
0.72	0	0	0	0	0	0	0	0	0	-48.019	104.099	0.544455	0.930972	0	-0.469829	-1.89848	4.11568	0.0215256
